<svg id="Layer_1" data-name="Layer 1" xmlns="http://www.w3.org/2000/svg" viewBox="0 0 15.68 25.43"><defs><style>.cls-1,.cls-2{fill:#fff;}.cls-1,.cls-2,.cls-3{fill-rule:evenodd;}.cls-2{stroke:#005698;stroke-miterlimit:10;}.cls-3{fill:#005698;}</style></defs><title>sapsb-navbar-logo</title><path class="cls-1" d="M13.83,10.3c1.64,2.29,3.78,5.63,3.78,7.54a5.63,5.63,0,0,1-11.27,0c0-1.92,2.14-5.26,3.78-7.54a7.84,7.84,0,1,0,3.71,0Z" transform="translate(-4.14 -0.32)"/><path class="cls-2" d="M16.78,17.84a6.93,6.93,0,0,0-.92-2.76c-1.09.84-2.31,2-3.82,1.3-1.3-.6-3.43-1.64-4.3-.57a5.45,5.45,0,0,0-.57,2,4.8,4.8,0,0,0,9.61,0Z" transform="translate(-4.14 -0.32)"/><path class="cls-2" d="M16.78,17.84a6.92,6.92,0,0,0-.91-2.76C14.69,16.65,14,17.93,12.31,18c-2.32.13-5.11-1.16-4.58-2.21a5.45,5.45,0,0,0-.57,2,4.8,4.8,0,0,0,9.61,0Z" transform="translate(-4.14 -0.32)"/><path class="cls-3" d="M11.31,21.9l.33,0a3.72,3.72,0,0,1-3.13-3.67,2.26,2.26,0,0,1,.05-.45,2.54,2.54,0,0,1-.57-.4,2.9,2.9,0,0,0-.16.85A3.72,3.72,0,0,0,11.31,21.9Z" transform="translate(-4.14 -0.32)"/><path class="cls-1" d="M14.91.32C11.4,3,12.31,8.09,12.31,8.09,16.57,3.06,14.91.32,14.91.32Z" transform="translate(-4.14 -0.32)"/><path class="cls-1" d="M12.85,9.1c3,.2,4.89-2.89,4.89-2.89C13.22,6.91,12.85,9.1,12.85,9.1Z" transform="translate(-4.14 -0.32)"/></svg>